<svg xmlns="http://www.w3.org/2000/svg" viewBox="0 0 24 24" fill="currentColor" width="24" height="24">
  <path d="M12 2C10.4 2 8.7 2.4 7.2 3.1L6.4 2.4C5.9 1.9 5 2 4.5 2.5L3 4c-.5.5-.6 1.4-.1 1.9l.7.7C2.4 8.3 2 10 2 12c0 3.3 1.3 6.3 3.6 8.4 2.1 2.1 4.9 3.3 7.9 3.3 1.1 0 2.2-.2 3.3-.5l.7.7c.5.5 1.4.4 1.9-.1l1.5-1.5c.5-.5.6-1.3.1-1.8l-.8-.8c.8-1.5 1.2-3.1 1.2-4.8 0-3.1-1.2-5.9-3.3-8.1C17 3.3 14.6 2 12 2zm0 2c1.9 0 3.8.7 5.2 2 2.8 2.8 3.1 7.3.8 10.2l-8-8C10.7 4.9 11.3 4.4 12 4zm-2.8 2.2L17.8 14c-1.6 1.6-4.2 1.9-6 .8L6.2 8c1.1-1.8 1.4-4.4.8-6l3.8 3.8z" />
</svg>
